<svg xmlns="http://www.w3.org/2000/svg" xmlns:xlink="http://www.w3.org/1999/xlink" width="50" zoomAndPan="magnify" viewBox="0 0 37.5 37.499999" height="50" preserveAspectRatio="xMidYMid meet" version="1.0"><defs><clipPath id="3a7968e60e"><path d="M 0 0 L 37.007812 0 L 37.007812 37.007812 L 0 37.007812 Z M 0 0 " clip-rule="nonzero"/></clipPath></defs><g clip-path="url(#3a7968e60e)"><path fill="#e4c590" d="M 37.007812 18.503906 C 37.007812 28.722656 28.722656 37.007812 18.503906 37.007812 C 14.882812 37.007812 11.507812 35.96875 8.652344 34.171875 L 0 35.875 L 3.503906 29.339844 C 1.300781 26.296875 0 22.550781 0 18.503906 C 0 8.285156 8.285156 0 18.503906 0 C 28.722656 0 37.007812 8.285156 37.007812 18.503906 Z M 37.007812 18.503906 " fill-opacity="1" fill-rule="nonzero"/></g><path fill="#f9fafd" d="M 33.566406 18.503906 C 33.566406 19.492188 33.472656 20.472656 33.277344 21.441406 C 33.085938 22.414062 32.800781 23.355469 32.421875 24.269531 C 32.042969 25.183594 31.578125 26.050781 31.03125 26.875 C 30.480469 27.695312 29.855469 28.457031 29.15625 29.15625 C 28.457031 29.855469 27.695312 30.480469 26.875 31.03125 C 26.050781 31.578125 25.183594 32.042969 24.269531 32.421875 C 23.355469 32.800781 22.414062 33.085938 21.441406 33.277344 C 20.472656 33.472656 19.492188 33.566406 18.503906 33.566406 C 17.515625 33.566406 16.535156 33.472656 15.566406 33.277344 C 14.59375 33.085938 13.652344 32.800781 12.738281 32.421875 C 11.824219 32.042969 10.957031 31.578125 10.136719 31.03125 C 9.3125 30.480469 8.550781 29.855469 7.851562 29.15625 C 7.152344 28.457031 6.527344 27.695312 5.980469 26.875 C 5.429688 26.050781 4.964844 25.183594 4.585938 24.269531 C 4.207031 23.355469 3.921875 22.414062 3.730469 21.441406 C 3.535156 20.472656 3.441406 19.492188 3.441406 18.503906 C 3.441406 17.515625 3.535156 16.535156 3.730469 15.566406 C 3.921875 14.59375 4.207031 13.652344 4.585938 12.738281 C 4.964844 11.824219 5.429688 10.957031 5.980469 10.136719 C 6.527344 9.3125 7.152344 8.550781 7.851562 7.851562 C 8.550781 7.152344 9.3125 6.527344 10.136719 5.980469 C 10.957031 5.429688 11.824219 4.964844 12.738281 4.585938 C 13.652344 4.207031 14.59375 3.921875 15.566406 3.730469 C 16.535156 3.535156 17.515625 3.441406 18.503906 3.441406 C 19.492188 3.441406 20.472656 3.535156 21.441406 3.730469 C 22.414062 3.921875 23.355469 4.207031 24.269531 4.585938 C 25.183594 4.964844 26.050781 5.429688 26.875 5.980469 C 27.695312 6.527344 28.457031 7.152344 29.15625 7.851562 C 29.855469 8.550781 30.480469 9.3125 31.03125 10.136719 C 31.578125 10.957031 32.042969 11.824219 32.421875 12.738281 C 32.800781 13.652344 33.085938 14.59375 33.277344 15.566406 C 33.472656 16.535156 33.566406 17.515625 33.566406 18.503906 Z M 33.566406 18.503906 " fill-opacity="1" fill-rule="nonzero"/><path fill="#e4c590" d="M 32.394531 18.503906 C 32.394531 19.417969 32.308594 20.320312 32.128906 21.214844 C 31.949219 22.109375 31.6875 22.976562 31.339844 23.820312 C 30.988281 24.664062 30.5625 25.464844 30.054688 26.222656 C 29.546875 26.980469 28.972656 27.683594 28.328125 28.328125 C 27.683594 28.972656 26.980469 29.546875 26.222656 30.054688 C 25.464844 30.5625 24.664062 30.988281 23.820312 31.339844 C 22.976562 31.6875 22.109375 31.949219 21.214844 32.128906 C 20.320312 32.308594 19.417969 32.394531 18.503906 32.394531 C 17.59375 32.394531 16.6875 32.308594 15.792969 32.128906 C 14.898438 31.949219 14.03125 31.6875 13.1875 31.339844 C 12.34375 30.988281 11.546875 30.5625 10.785156 30.054688 C 10.027344 29.546875 9.328125 28.972656 8.683594 28.328125 C 8.035156 27.683594 7.460938 26.980469 6.953125 26.222656 C 6.449219 25.464844 6.019531 24.664062 5.671875 23.820312 C 5.320312 22.976562 5.058594 22.109375 4.878906 21.214844 C 4.703125 20.320312 4.613281 19.417969 4.613281 18.503906 C 4.613281 17.59375 4.703125 16.6875 4.878906 15.792969 C 5.058594 14.898438 5.320312 14.03125 5.671875 13.1875 C 6.019531 12.34375 6.449219 11.546875 6.953125 10.785156 C 7.460938 10.027344 8.035156 9.328125 8.683594 8.683594 C 9.328125 8.035156 10.027344 7.460938 10.785156 6.953125 C 11.546875 6.449219 12.34375 6.019531 13.1875 5.671875 C 14.03125 5.320312 14.898438 5.058594 15.792969 4.878906 C 16.6875 4.703125 17.59375 4.613281 18.503906 4.613281 C 19.417969 4.613281 20.320312 4.703125 21.214844 4.878906 C 22.109375 5.058594 22.976562 5.320312 23.820312 5.671875 C 24.664062 6.019531 25.464844 6.449219 26.222656 6.953125 C 26.980469 7.460938 27.683594 8.035156 28.328125 8.683594 C 28.972656 9.328125 29.546875 10.027344 30.054688 10.785156 C 30.5625 11.546875 30.988281 12.34375 31.339844 13.1875 C 31.6875 14.03125 31.949219 14.898438 32.128906 15.792969 C 32.308594 16.6875 32.394531 17.59375 32.394531 18.503906 Z M 32.394531 18.503906 " fill-opacity="1" fill-rule="nonzero"/><path fill="#f9fafd" d="M 15.996094 14.375 L 15.128906 11.789062 C 14.742188 10.632812 13.492188 10.007812 12.332031 10.394531 C 12.253906 10.421875 12.175781 10.453125 12.101562 10.488281 L 10.707031 11.140625 C 9.769531 11.574219 9.261719 12.601562 9.480469 13.613281 C 10.351562 17.652344 13.5625 27.324219 24.402344 28.53125 C 25.285156 28.628906 26.136719 28.191406 26.574219 27.421875 L 27.292969 26.152344 C 27.894531 25.089844 27.519531 23.738281 26.457031 23.140625 L 26.441406 23.128906 L 24.511719 22.054688 C 23.652344 21.578125 22.578125 21.726562 21.882812 22.417969 C 21.1875 23.105469 20.125 23.257812 19.269531 22.789062 C 18.09375 22.144531 16.484375 21.042969 15.355469 19.417969 C 14.832031 18.671875 14.820312 17.683594 15.324219 16.925781 L 15.738281 16.300781 C 16.117188 15.730469 16.210938 15.019531 15.996094 14.375 Z M 15.996094 14.375 " fill-opacity="1" fill-rule="nonzero"/></svg>